<?xml version="1.0" encoding="utf-8"?>
<!-- Generator: Adobe Illustrator 23.1.0, SVG Export Plug-In . SVG Version: 6.00 Build 0)  -->
<svg version="1.1" id="Layer_1" xmlns="http://www.w3.org/2000/svg" xmlns:xlink="http://www.w3.org/1999/xlink" x="0px" y="0px"
	 viewBox="0 0 680 210" style="enable-background:new 0 0 680 210;" xml:space="preserve">
<style type="text/css">
	.st0{display:none;fill:#B5B5B5;}
	.st1{fill:#FFFFFF;}
	.st2{font-family:'MalgunGothicBold';}
	.st3{font-size:18.9857px;}
	.st4{fill:none;stroke:#FFFFFF;stroke-width:5;stroke-miterlimit:10;}
</style>
<rect x="-35" y="-30" class="st0" width="746" height="287"/>
<text transform="matrix(1 0 0 1 280.1699 166.918)" class="st1 st2 st3">사진 추가하기</text>
<g>
	<path class="st4" d="M392.5,110.5c0,8.25-6.75,15-15,15h-75c-8.25,0-15-6.75-15-15v-67c0-8.25,6.75-15,15-15h75
		c8.25,0,15,6.75,15,15V110.5z"/>
</g>
<g>
	<path class="st1" d="M346,103c0,2.75-2.25,5-5,5h-2c-2.75,0-5-2.25-5-5V47c0-2.75,2.25-5,5-5h2c2.75,0,5,2.25,5,5V103z"/>
</g>
<g>
	<path class="st1" d="M312,81c-2.75,0-5-2.25-5-5v-2c0-2.75,2.25-5,5-5h56c2.75,0,5,2.25,5,5v2c0,2.75-2.25,5-5,5H312z"/>
</g>
</svg>
